<svg width="24" height="24" viewBox="0 0 24 24" fill="none" xmlns="http://www.w3.org/2000/svg">
<path d="M11.9999 4.8999C12.5522 4.8999 12.9999 4.45219 12.9999 3.8999C12.9999 3.34762 12.5522 2.8999 11.9999 2.8999V4.8999ZM21.0999 11.9999C21.0999 11.4476 20.6522 10.9999 20.0999 10.9999C19.5476 10.9999 19.0999 11.4476 19.0999 11.9999H21.0999ZM8.99978 15.0006C8.44749 15.0007 7.99983 15.4485 7.9999 16.0008C7.99997 16.553 8.44774 17.0007 9.00003 17.0006L8.99978 15.0006ZM15 16.9999C15.5523 16.9998 16 16.552 15.9999 15.9998C15.9998 15.4475 15.5521 14.9998 14.9998 14.9999L15 16.9999ZM12.3272 9.98665C11.9186 10.3582 11.8885 10.9906 12.26 11.3993C12.6315 11.8079 13.2639 11.838 13.6726 11.4665L12.3272 9.98665ZM21.072 4.7398C21.4806 4.36829 21.5107 3.73584 21.1392 3.32719C20.7677 2.91853 20.1353 2.88841 19.7266 3.25992L21.072 4.7398ZM19.0999 19.0999H4.8999V21.0999H19.0999V19.0999ZM4.8999 19.0999V4.8999H2.8999V19.0999H4.8999ZM4.8999 4.8999H11.9999V2.8999H4.8999V4.8999ZM19.0999 11.9999V19.0999H21.0999V11.9999H19.0999ZM4.8999 19.0999H4.8999H2.8999C2.8999 20.2045 3.79533 21.0999 4.8999 21.0999V19.0999ZM19.0999 21.0999C20.2045 21.0999 21.0999 20.2045 21.0999 19.0999H19.0999V21.0999ZM4.8999 4.8999V4.8999V2.8999C3.79533 2.8999 2.8999 3.79533 2.8999 4.8999H4.8999ZM9.00003 17.0006L15 16.9999L14.9998 14.9999L8.99978 15.0006L9.00003 17.0006ZM13.6726 11.4665L21.072 4.7398L19.7266 3.25992L12.3272 9.98665L13.6726 11.4665Z" fill="#7F838A"/>
</svg>
